<svg height="45" viewBox="0 0 249 45" width="249" xmlns="http://www.w3.org/2000/svg" xmlns:xlink="http://www.w3.org/1999/xlink"><mask id="a" fill="#fff"><path d="m.01263364.14246445h246.17485036v44.84473935h-246.17485036z" fill="#fff" fill-rule="evenodd"/></mask><g fill="none" fill-rule="evenodd"><path d="m234.251592 25.5126518c-1.459495 0-2.642698-1.1779737-2.642698-2.6312959 0-1.4533221 1.183203-2.6312958 2.642698-2.6312958 1.457386 0 2.640589 1.1779737 2.640589 2.6312958 0 1.4533222-1.183203 2.6312959-2.640589 2.6312959zm13.253564-9.4957026h-13.766075c-3.140445 0-5.688234 2.5610798-5.688234 5.7203743v2.2880649c0 3.1592945 2.547789 5.7203743 5.688234 5.7203743h13.766075c.62851 0 1.138912-.5123008 1.138912-1.1440324v-11.4407487c0-.6317316-.510402-1.1440324-1.138912-1.1440324z" fill="#f48d71"/><path d="m241.779661 1.52542373c1.013869 1.38967496 1.631695 3.20754353 1.631695 5.20107569v.36109836c0 .02171367.003961.04277593.003961.0644896v7.33943802h2.940615v-6.79247064c0-3.14261965-1.990113-5.71590684-4.576271-6.17363103" fill="#f48d71"/><path d="m241.321428 43.5740758c1.07807-1.3651422 1.735019-3.1504265 1.735019-5.1084597v-.3546682c0-.0215403.004211-.0420143.004211-.0633413v-7.208744h3.126826v6.6715165c0 3.0866588-2.116135 5.6141233-4.866056 6.0636967" fill="#f48d71" mask="url(#a)"/><g fill="#297ee1"><path d="m226.369518 23.7213981v-2.3003317c0-3.9320617 2.808878-7.1311138 6.257861-7.1311138h8.980411v-7.62675355c0-3.60127962-2.562523-6.5207346-5.720932-6.5207346h-44.808986c-3.160094 0-5.721985 2.91945498-5.721985 6.5207346v31.81606635c0 3.6014929 2.561891 6.5207346 5.721985 6.5207346h44.808986c3.158409 0 5.720932-2.9192417 5.720932-6.5207346v-7.6265403h-8.980411c-3.448983 0-6.257861-3.1990521-6.257861-7.131327z" mask="url(#a)"/><path d="m32.6162621 42.6798341h-12.5024583l-20.1138038-40.27606633h11.9813207l14.4709896 30.30931283 14.4413005-30.30931283h11.9815313z" mask="url(#a)"/><path d="m99.7333837 22.8812485c0-1.5165896-.2361841-3.0280214-.7087632-4.5345104-.4734218-1.5060592-1.3130238-2.8601801-2.5196489-4.0608582-1.2068358-1.2015379-2.8523295-2.1761352-4.9375344-2.9248667-2.0852049-.7478719-4.7399066-1.1224525-7.9636835-1.1224525-2.1618963 0-4.0640111.173214-5.7044482.5174929-1.6412798.344279-3.0607024.8217994-4.2572144 1.4321317-1.1975654.6111918-2.200874 1.3246787-3.0118222 2.1415353-.8109481.8177162-1.4581897 1.6938868-1.9400391 2.6287266-.4826922.9356995-.8252751 1.9109416-1.0277488 2.9248667-.2035271 1.0139251-.3046586 2.0132366-.3046586 2.9979346 0 1.0044693.1011315 2.0186093.3046586 3.0419903.2024737 1.0242405.5450566 2.0046404 1.0277488 2.9394802.4818494.9354845 1.129091 1.8064974 1.9400391 2.6138981.8109482.8074007 1.8142568 1.5114318 3.0118222 2.1123082 1.196512.6008763 2.6159346 1.073454 4.2572144 1.4177329 1.6404371.344279 3.5425519.5164185 5.7044482.5164185 3.2237769 0 5.8784786-.3737211 7.9636835-1.1224526 2.0852049-.7478718 3.7306986-1.7224692 4.9375344-2.924007 1.2066251-1.2006782 2.0462271-2.5545841 2.5196489-4.0617178.4725791-1.506489.7087632-3.0170613.7087632-4.5336508zm10.8598363 0c0 3.4851258-.627858 6.5623606-1.881888 9.2306299-1.255716 2.6682692-3.050589 4.8985606-5.386306 6.6897997-2.336769 1.7929583-5.1695042 3.1460046-8.4994692 4.0617179-3.3308078.9159281-7.0707768 1.3738921-11.2218031 1.3738921-4.1508157 0-7.9011084-.457964-11.2502463-1.3738921-3.3501913-.9157133-6.2025208-2.2687596-8.5576204-4.0617179-2.3553103-1.7912391-4.1695671-4.0215305-5.4438239-6.6897997-1.2742567-2.6682693-1.9113851-5.7455041-1.9113851-9.2306299 0-3.4859855.6371284-6.5623607 1.9113851-9.2306299 1.2742568-2.6682693 3.0885136-4.89856069 5.4438239-6.69044446 2.3550996-1.79123907 5.2074291-3.14621954 8.5576204-4.06107314 3.3491379-.91592812 7.0994306-1.37367727 11.2502463-1.37367727 4.1510263 0 7.8909953.45774915 11.2218031 1.37367727 3.329965.9148536 6.1627002 2.26983407 8.4994692 4.06107314 2.335717 1.79188377 4.13059 4.02217516 5.386306 6.69044446 1.25403 2.6682692 1.881888 5.7446444 1.881888 9.2306299z"/><path d="m145.959052 21.9706493 18.786711 20.7412151h-12.821747l-12.390931-13.6220581-12.332231 13.6220581h-12.794074l18.758198-20.7412151-17.83619-19.68251371h12.822586l11.381711 12.65068991 11.439572-12.65068991h12.822586z"/></g></g></svg>