<svg height="44" viewBox="0 0 239 44" width="239" xmlns="http://www.w3.org/2000/svg" xmlns:xlink="http://www.w3.org/1999/xlink"><mask id="a" fill="#fff"><path d="m.71324.41338235h20.94884v13.92264705h-20.94884z" fill="#fff" fill-rule="evenodd"/></mask><mask id="b" fill="#fff"><path d="m0 .25009787h50.3646387v38.20838303h-50.3646387z" fill="#fff" fill-rule="evenodd"/></mask><mask id="c" fill="#fff"><path d="m0 .25009787h50.3646387v38.20838303h-50.3646387z" fill="#fff" fill-rule="evenodd"/></mask><mask id="d" fill="#fff"><path d="m0 .25009787h50.3646387v38.20838303h-50.3646387z" fill="#fff" fill-rule="evenodd"/></mask><g fill="none" fill-rule="evenodd"><g fill="#f48d71"><path d="m7.0202 10.0433824c-1.48456 0-2.68752-1.19470593-2.68752-2.66823534s1.20296-2.66911765 2.68752-2.66911765 2.68752 1.19558824 2.68752 2.66911765-1.20296 2.66823534-2.68752 2.66823534m13.48424-9.63000005h-14.0052c-3.19528 0-5.786 2.59676471-5.786 5.80147059v2.32058824c0 3.20382352 2.59072 5.80058822 5.786 5.80058822h14.0052c.63976 0 1.15808-.5197059 1.15808-1.1594118v-11.60382348c0-.63970588-.51832-1.15941177-1.15808-1.15941177" mask="url(#a)" transform="translate(217 14)"/><path d="m230 1c1.328009 1.39375 2.140575 3.21607143 2.140575 5.21517857v.36160714c0 .02232143.00426.04285715.00426.06428572v7.35892857h3.855165v-6.80982143c0-3.15178571-2.609159-5.73035714-6-6.19017857"/><path d="m230 43c1.328009-1.39375 2.140575-3.2160714 2.140575-5.2151786v-.3616071c0-.0223214.00426-.0428572.00426-.0642857v-7.3589286h3.855165v6.8098214c0 3.1517857-2.609159 5.73125-6 6.1901786"/></g><path d="m224.37983 30.1229647c-3.312771 0-6.007093-3.1376479-6.007093-6.9942866v-2.2564982c0-3.8574967 2.694322-6.9960026 6.007093-6.9960026h8.62017v-7.47990563c0-3.53232065-2.45805-6.39627167-5.493099-6.39627167h-43.013802c-3.033391 0-5.493099 2.86395102-5.493099 6.39627167v31.20745663c0 3.5331787 2.459708 6.3962717 5.493099 6.3962717h43.013802c3.035049 0 5.493099-2.863093 5.493099-6.3962717v-7.4807636z" fill="#fff"/><path d="m31.0677194 38.4584809h-11.9093226l-19.15872583-38.20838303h11.41248383l13.7839839 28.75295743 13.7560161-28.75295743h11.4124839z" fill="#070201" mask="url(#b)" transform="translate(0 1)"/><path d="m94.7728187 22c0-1.4916422-.2221708-2.9780841-.6673263-4.4593256-.4459692-1.4812415-1.2369949-2.8125387-2.3730771-3.9930249-1.1368961-1.1813529-2.686395-2.1399562-4.6501245-2.87581-1.9637295-.7358537-4.4645752-1.10421393-7.5000957-1.10421393-2.0361588 0-3.8273601.1707458-5.37279.50877053-1.5454299.3388914-2.8825238.808659-4.0088402 1.4084361-1.1279441.6015106-2.0727804 1.3026951-2.8369503 2.1061538-.7633561.8043254-1.3729016 1.665855-1.827009 2.5845887-.4541074.9204672-.7771909 1.8790706-.967623 2.8766767-.1920598.9967395-.2872758 1.9796112-.2872758 2.9477486 0 .9880721.095216 1.9848116.2872758 2.9910851.1904321 1.0071402.5135156 1.9718106.967623 2.8905444.4541074.9204672 1.0636529 1.7767964 1.827009 2.570721.7641699.7939246 1.7090062 1.4864419 2.8369503 2.076685 1.1263164.5911098 2.4634103 1.055677 4.0088402 1.3945684 1.5454299.3380247 3.3366312.5079038 5.37279.5079038 3.0355205 0 5.5363662-.3674935 7.5000957-1.104214 1.9637295-.734987 3.5132284-1.6935903 4.6501245-2.8749432 1.1360822-1.1804862 1.9271079-2.5117834 2.3730771-3.9938916.4451555-1.4812415.6673263-2.9668167.6673263-4.4584589m10.2271813 0c0 3.4270502-.590828 6.4528045-1.77167 9.0772628-1.182469 2.6235915-2.873572 4.8164183-5.0733067 6.5776136-2.2005489 1.7637954-4.8682262 3.0942259-8.0046595 3.9947583-3.1364332.9005325-6.6586136 1.3503653-10.5681687 1.3503653-3.9095552 0-7.4415013-.4498328-10.5958384-1.3503653-3.155151-.9005324-5.8407321-2.2309629-8.0591849-3.9947583-2.217639-1.7611953-3.9266452-3.9540221-5.1270186-6.5776136-1.1995596-2.6244583-1.8001532-5.6502126-1.8001532-9.0772628 0-3.427917.6005936-6.4528045 1.8001532-9.0772628 1.2003734-2.6235915 2.9093796-4.81641833 5.1270186-6.57848032 2.2184528-1.76206199 4.9040339-3.09422593 8.0591849-3.99389162 3.1543371-.90053242 6.6862832-1.35036526 10.5958384-1.35036526 3.9095551 0 7.4317355.44983284 10.5681687 1.35036526 3.1364333.89966569 5.8041106 2.23182963 8.0046595 3.99389162 2.1997347 1.76206199 3.8908377 3.95488882 5.0733067 6.57848032 1.180842 2.6244583 1.77167 5.6493458 1.77167 9.0772628" fill="#030000"/><path d="m140.71267 20.9892716 18.28733 20.0107284h-12.481416l-12.061268-13.1425748-12.003519 13.1425748h-12.453797l18.258873-20.0107284-17.361664-18.9892716h12.481416l11.078691 12.2049689 11.135602-12.2049689h12.481417z" fill="#070201"/><path d="m31.0677194 38.4584809h-11.9093226l-19.15872583-38.20838303h11.41248383l13.7839839 28.75295743 13.7560161-28.75295743h11.4124839z" fill="#070201" mask="url(#c)" transform="translate(0 1)"/><path d="m94.7728187 22c0-1.4916422-.2221708-2.9780841-.6673263-4.4593256-.4459692-1.4812415-1.2369949-2.8125387-2.3730771-3.9930249-1.1368961-1.1813529-2.686395-2.1399562-4.6501245-2.87581-1.9637295-.7358537-4.4645752-1.10421393-7.5000957-1.10421393-2.0361588 0-3.8273601.1707458-5.37279.50877053-1.5454299.3388914-2.8825238.808659-4.0088402 1.4084361-1.1279441.6015106-2.0727804 1.3026951-2.8369503 2.1061538-.7633561.8043254-1.3729016 1.665855-1.827009 2.5845887-.4541074.9204672-.7771909 1.8790706-.967623 2.8766767-.1920598.9967395-.2872758 1.9796112-.2872758 2.9477486 0 .9880721.095216 1.9848116.2872758 2.9910851.1904321 1.0071402.5135156 1.9718106.967623 2.8905444.4541074.9204672 1.0636529 1.7767964 1.827009 2.570721.7641699.7939246 1.7090062 1.4864419 2.8369503 2.076685 1.1263164.5911098 2.4634103 1.055677 4.0088402 1.3945684 1.5454299.3380247 3.3366312.5079038 5.37279.5079038 3.0355205 0 5.5363662-.3674935 7.5000957-1.104214 1.9637295-.734987 3.5132284-1.6935903 4.6501245-2.8749432 1.1360822-1.1804862 1.9271079-2.5117834 2.3730771-3.9938916.4451555-1.4812415.6673263-2.9668167.6673263-4.4584589m10.2271813 0c0 3.4270502-.590828 6.4528045-1.77167 9.0772628-1.182469 2.6235915-2.873572 4.8164183-5.0733067 6.5776136-2.2005489 1.7637954-4.8682262 3.0942259-8.0046595 3.9947583-3.1364332.9005325-6.6586136 1.3503653-10.5681687 1.3503653-3.9095552 0-7.4415013-.4498328-10.5958384-1.3503653-3.155151-.9005324-5.8407321-2.2309629-8.0591849-3.9947583-2.217639-1.7611953-3.9266452-3.9540221-5.1270186-6.5776136-1.1995596-2.6244583-1.8001532-5.6502126-1.8001532-9.0772628 0-3.427917.6005936-6.4528045 1.8001532-9.0772628 1.2003734-2.6235915 2.9093796-4.81641833 5.1270186-6.57848032 2.2184528-1.76206199 4.9040339-3.09422593 8.0591849-3.99389162 3.1543371-.90053242 6.6862832-1.35036526 10.5958384-1.35036526 3.9095551 0 7.4317355.44983284 10.5681687 1.35036526 3.1364333.89966569 5.8041106 2.23182963 8.0046595 3.99389162 2.1997347 1.76206199 3.8908377 3.95488882 5.0733067 6.57848032 1.180842 2.6244583 1.77167 5.6493458 1.77167 9.0772628" fill="#030000"/><path d="m140.71267 20.9892716 18.28733 20.0107284h-12.481416l-12.061268-13.1425748-12.003519 13.1425748h-12.453797l18.258873-20.0107284-17.361664-18.9892716h12.481416l11.078691 12.2049689 11.135602-12.2049689h12.481417z" fill="#070201"/><path d="m31.0677194 38.4584809h-11.9093226l-19.15872583-38.20838303h11.41248383l13.7839839 28.75295743 13.7560161-28.75295743h11.4124839z" fill="#fff" mask="url(#d)" transform="translate(0 1)"/><path d="m94.7728187 22c0-1.4916422-.2221708-2.9780841-.6673263-4.4593256-.4459692-1.4812415-1.2369949-2.8125387-2.3730771-3.9930249-1.1368961-1.1813529-2.686395-2.1399562-4.6501245-2.87581-1.9637295-.7358537-4.4645752-1.10421393-7.5000957-1.10421393-2.0361588 0-3.8273601.1707458-5.37279.50877053-1.5454299.3388914-2.8825238.808659-4.0088402 1.4084361-1.1279441.6015106-2.0727804 1.3026951-2.8369503 2.1061538-.7633561.8043254-1.3729016 1.665855-1.827009 2.5845887-.4541074.9204672-.7771909 1.8790706-.967623 2.8766767-.1920598.9967395-.2872758 1.9796112-.2872758 2.9477486 0 .9880721.095216 1.9848116.2872758 2.9910851.1904321 1.0071402.5135156 1.9718106.967623 2.8905444.4541074.9204672 1.0636529 1.7767964 1.827009 2.570721.7641699.7939246 1.7090062 1.4864419 2.8369503 2.076685 1.1263164.5911098 2.4634103 1.055677 4.0088402 1.3945684 1.5454299.3380247 3.3366312.5079038 5.37279.5079038 3.0355205 0 5.5363662-.3674935 7.5000957-1.104214 1.9637295-.734987 3.5132284-1.6935903 4.6501245-2.8749432 1.1360822-1.1804862 1.9271079-2.5117834 2.3730771-3.9938916.4451555-1.4812415.6673263-2.9668167.6673263-4.4584589m10.2271813 0c0 3.4270502-.590828 6.4528045-1.77167 9.0772628-1.182469 2.6235915-2.873572 4.8164183-5.0733067 6.5776136-2.2005489 1.7637954-4.8682262 3.0942259-8.0046595 3.9947583-3.1364332.9005325-6.6586136 1.3503653-10.5681687 1.3503653-3.9095552 0-7.4415013-.4498328-10.5958384-1.3503653-3.155151-.9005324-5.8407321-2.2309629-8.0591849-3.9947583-2.217639-1.7611953-3.9266452-3.9540221-5.1270186-6.5776136-1.1995596-2.6244583-1.8001532-5.6502126-1.8001532-9.0772628 0-3.427917.6005936-6.4528045 1.8001532-9.0772628 1.2003734-2.6235915 2.9093796-4.81641833 5.1270186-6.57848032 2.2184528-1.76206199 4.9040339-3.09422593 8.0591849-3.99389162 3.1543371-.90053242 6.6862832-1.35036526 10.5958384-1.35036526 3.9095551 0 7.4317355.44983284 10.5681687 1.35036526 3.1364333.89966569 5.8041106 2.23182963 8.0046595 3.99389162 2.1997347 1.76206199 3.8908377 3.95488882 5.0733067 6.57848032 1.180842 2.6244583 1.77167 5.6493458 1.77167 9.0772628" fill="#fff"/><path d="m140.71267 20.9892716 18.28733 20.0107284h-12.481416l-12.061268-13.1425748-12.003519 13.1425748h-12.453797l18.258873-20.0107284-17.361664-18.9892716h12.481416l11.078691 12.2049689 11.135602-12.2049689h12.481417z" fill="#fff"/></g></svg>