<svg height="297mm" viewBox="0 0 744.09448819 1052.3622047" width="210mm" xmlns="http://www.w3.org/2000/svg"><g fill="#9c9c9c" fill-opacity=".45098" fill-rule="evenodd"><path d="m139.32394 274.20898c-2.43478 0-4.74475.50716-6.83985 1.41211-1.96625.82082-3.73345 2.01806-5.21093 3.50391-3.1756 3.1164-5.14454 7.45787-5.14454 12.2793v90.91406c0 9.5259 7.66941 17.19336 17.19532 17.19336 9.5259 0 17.19336-7.66746 17.19336-17.19336v-75.67774h75.13867c8.93724 0 16.13281-7.19361 16.13281-16.13085 0-8.93723-7.19557-16.13282-16.13281-16.13282h-90.04297c-.75087-.0994-1.51019-.16797-2.28906-.16797z"/><path d="m631.50851 291.04712c0-2.43478-.50716-4.74475-1.41211-6.83985-.82082-1.96625-2.01806-3.73345-3.50391-5.21093-3.1164-3.1756-7.45787-5.14454-12.2793-5.14454h-90.91406c-9.5259 0-17.19336 7.66941-17.19336 17.19532 0 9.5259 7.66746 17.19336 17.19336 17.19336h75.67774v75.13867c0 8.93724 7.19361 16.13281 16.13085 16.13281 8.93723 0 16.13282-7.19557 16.13282-16.13281v-90.04297c.0994-.75087.16797-1.51019.16797-2.28906z"/><path d="m122.12824 684.96063c0 2.43478.50716 4.74475 1.41211 6.83985.82082 1.96626 2.01806 3.73346 3.50391 5.21094 3.1164 3.1756 7.45787 5.14454 12.2793 5.14454h90.91406c9.5259 0 17.19336-7.66941 17.19336-17.19533 0-9.5259-7.66746-17.19336-17.19336-17.19336h-75.67774v-75.13866c0-8.93724-7.19361-16.13281-16.13085-16.13281-8.93723 0-16.13282 7.19557-16.13282 16.13281v90.04296c-.0994.75087-.16797 1.51019-.16797 2.28906z"/><path d="m614.67107 702.15643c2.43478 0 4.74475-.50716 6.83985-1.41211 1.96626-.82082 3.73346-2.01806 5.21094-3.50391 3.1756-3.1164 5.14454-7.45787 5.14454-12.2793v-90.91406c0-9.5259-7.66941-17.19336-17.19533-17.19336-9.5259 0-17.19336 7.66746-17.19336 17.19336v75.67774h-75.13866c-8.93724 0-16.13281 7.19361-16.13281 16.13085 0 8.93723 7.19557 16.13282 16.13281 16.13282h90.04296c.75087.0994 1.51019.16797 2.28906.16797z"/></g></svg>