<?xml version="1.0" standalone="no"?><!-- Generator: Gravit.io --><svg xmlns="http://www.w3.org/2000/svg" xmlns:xlink="http://www.w3.org/1999/xlink" style="isolation:isolate" viewBox="0 0 25 27" width="25" height="27"><defs><clipPath id="_clipPath_Skjml6Aq1xVdGC4wC8bU5fkxMp4U70tT"><rect width="25" height="27"/></clipPath></defs><g clip-path="url(#_clipPath_Skjml6Aq1xVdGC4wC8bU5fkxMp4U70tT)"><clipPath id="_clipPath_J2OoyHrfLdJcRt752f8UZ6d1SIyal0YC"><rect x="0" y="0" width="25" height="27" transform="matrix(1,0,0,1,0,0)" fill="rgb(255,255,255)"/></clipPath><g clip-path="url(#_clipPath_J2OoyHrfLdJcRt752f8UZ6d1SIyal0YC)"><g><path d=" M 7.43 0.666 L 0.892 8.643 L 3.942 8.643 L 3.942 15.619 L 10.918 15.619 L 10.918 8.643 L 13.968 8.643 L 7.43 0.666 L 7.43 0.666 Z " fill-rule="evenodd" fill="none" vector-effect="non-scaling-stroke" stroke-width="0.844" stroke="rgb(41,126,225)" stroke-opacity="100" stroke-linejoin="miter" stroke-linecap="butt" stroke-miterlimit="4"/><path d=" M 17.792 26.836 L 24.33 18.858 L 21.28 18.858 L 21.28 11.882 L 14.304 11.882 L 14.304 18.858 L 11.254 18.858 L 17.792 26.836 L 17.792 26.836 Z " fill-rule="evenodd" fill="none" vector-effect="non-scaling-stroke" stroke-width="0.844" stroke="rgb(41,126,225)" stroke-opacity="100" stroke-linejoin="miter" stroke-linecap="butt" stroke-miterlimit="4"/><path d=" M 10.918 8.642 L 13.968 8.642 L 7.43 0.665 L 0.892 8.642 L 3.941 8.642 L 3.941 15.619 L 10.918 15.619" fill-rule="evenodd" fill="none" vector-effect="non-scaling-stroke" stroke-width="0.844" stroke="rgb(41,126,225)" stroke-opacity="100" stroke-linejoin="miter" stroke-linecap="butt" stroke-miterlimit="4"/><path d=" M 17.792 26.836 L 24.33 18.858 L 21.28 18.858 L 21.28 11.882 L 14.304 11.882 L 14.304 18.858 L 11.254 18.858 L 17.792 26.836 L 17.792 26.836 Z " fill-rule="evenodd" fill="none" vector-effect="non-scaling-stroke" stroke-width="0.844" stroke="rgb(41,126,225)" stroke-opacity="100" stroke-linejoin="miter" stroke-linecap="butt" stroke-miterlimit="4"/></g></g></g></svg>